<?xml version="1.0" encoding="UTF-8"?>
<svg version="1.1" xmlns="http://www.w3.org/2000/svg" width="1024" height="729">
<path d="M0 0 C0.83015625 0.62261719 1.6603125 1.24523437 2.515625 1.88671875 C13.46737433 11.20259357 20.34666119 25.74240259 21.83984375 39.9140625 C22.98057914 54.77144545 20.0281539 69.55982204 10.45703125 81.3359375 C-0.47876544 93.82561415 -13.21295979 100.70013948 -29.74609375 101.96484375 C-46.56357556 102.14654523 -62.59859674 97.94611266 -75.25 86.375 C-83.08631226 78.06279833 -87.03412005 67.21227351 -87.125 55.875 C-87.08375 54.92625 -87.0425 53.9775 -87 53 C-84.31743653 51.65871827 -82.05967803 51.81223392 -79.0625 51.6875 C-67.4038714 50.86211036 -57.90833272 46.7407888 -50 38 C-43.69769103 29.53689939 -42.97101079 21.33276669 -44 11 C-46.94483341 1.06118725 -53.57322556 -4.92501425 -62.4375 -9.75 C-78.30296181 -17.56608884 -97.1963372 -18.01455599 -114 -13 C-126.89824272 -8.19558876 -135.64372826 -1.25627644 -142 11 C-147.4950617 23.71945163 -147.54705101 36.60714148 -143.31640625 49.7265625 C-138.06919778 62.77451709 -127.78942903 74.18610023 -117 83 C-116.1028125 83.78375 -115.205625 84.5675 -114.28125 85.375 C-105.71014478 92.85490873 -96.63592904 99.57854591 -87.42431641 106.24462891 C-85.09460015 107.93150302 -82.7712126 109.62673683 -80.44921875 111.32421875 C-72.78251662 116.91273953 -65.04111447 122.36468581 -57.1875 127.6875 C-49.55863885 132.86318288 -42.24304856 138.29842075 -35 144 C-33.34864426 145.2686763 -31.69278904 146.53131591 -30.03662109 147.79370117 C-19.3563881 155.94903042 -9.1505687 164.46466251 0.61376953 173.69287109 C1.74361083 174.758241 2.88397647 175.8124408 4.02734375 176.86328125 C17.64689735 189.77782266 27.82043555 207.04417658 33 225 C33.31839844 226.09828125 33.63679688 227.1965625 33.96484375 228.328125 C38.12039137 245.40991522 37.76757912 264.37802608 32 281 C31.63777344 282.06089844 31.27554687 283.12179687 30.90234375 284.21484375 C21.95653544 307.77719309 2.74193014 323.42483774 -19.43798828 333.86572266 C-63.81330303 353.51196931 -120.2546431 353.08572952 -165.36669922 336.109375 C-189.45449096 326.65257508 -209.12340705 311.49089621 -220.45703125 287.734375 C-227.20328439 272.08008594 -228.06635502 255.3418519 -223 239 C-216.67447061 223.16700825 -205.95979998 211.53657946 -190.4609375 204.4765625 C-176.48896715 198.51560901 -160.39910206 197.6707234 -146 203 C-130.74033875 209.27993751 -119.72836157 219.01374499 -113.0625 234.25 C-111.3363316 238.48642685 -110.53665586 242.4581967 -110 247 C-111.23234375 247.08636719 -112.4646875 247.17273438 -113.734375 247.26171875 C-128.01422198 248.40907743 -140.10068614 250.71844108 -150 262 C-157.52852201 272.62295211 -160.08143176 285.16726735 -158.4375 298 C-156.22382408 309.27498937 -150.43184239 319.6426871 -140.86328125 326.125 C-122.39796873 337.49026252 -101.32500574 340.25285822 -80.171875 336.28125 C-66.60845492 332.81570654 -55.31954431 326.10935698 -47.8125 314.1875 C-39.68017813 299.78786875 -37.12709019 284.90576583 -40.75390625 268.61328125 C-43.9584519 257.28340227 -49.46947723 247.96726724 -57 239 C-57.5671875 238.31035156 -58.134375 237.62070312 -58.71875 236.91015625 C-65.09473776 229.36040711 -72.71904137 223.29031155 -80.5 217.25 C-81.28479736 216.64075684 -82.06959473 216.03151367 -82.87817383 215.40380859 C-89.65373159 210.18847954 -96.62760448 205.33387167 -103.71386719 200.5546875 C-108.27522505 197.45273033 -112.78944824 194.28241943 -117.3125 191.125 C-122.87406155 187.24331291 -128.43641909 183.36593738 -134.0625 179.578125 C-145.07894409 172.15772224 -155.62721174 164.29560459 -166 156 C-166.54624023 155.56703613 -167.09248047 155.13407227 -167.65527344 154.68798828 C-191.82898584 135.51818692 -215.06135363 112.26660296 -219 80 C-219.90511169 61.90667476 -218.98814062 45.54849762 -211 29 C-210.58105469 28.09894531 -210.16210938 27.19789063 -209.73046875 26.26953125 C-198.11833506 3.07872824 -175.69844665 -10.68825172 -151.80761719 -18.73876953 C-104.84059962 -33.80464967 -39.67058523 -32.11428328 0 0 Z " fill="#E3EB73" transform="translate(230,239)"/>
<path d="M0 0 C1.18638062 0.00323273 1.18638062 0.00323273 2.39672852 0.00653076 C14.23870892 0.05824899 25.70646809 0.43973467 37.25 3.3125 C38.04148437 3.50054199 38.83296875 3.68858398 39.6484375 3.88232422 C64.31722606 9.91983731 86.89480591 22.6840271 100.78125 44.59375 C108.95163638 59.7176567 112.86968399 75.73979175 114.9375 92.6875 C115.11684082 94.1269397 115.11684082 94.1269397 115.29980469 95.59545898 C118.44024986 124.05289877 117.33936396 152.98600938 117.25 181.5625 C117.22612153 189.21625284 117.20583692 196.86998374 117.19406128 204.52376556 C117.18773087 207.53095054 117.17523738 210.53806422 117.16235352 213.54522705 C117.13610929 223.14013237 117.26518155 232.71268724 117.671875 242.29980469 C117.72643105 243.65632078 117.72643105 243.65632078 117.78208923 245.04024124 C118.28364114 255.5669758 119.99482423 267.61362637 128 275.25 C132.17507361 277.89956594 134.30639314 278.3125 139.25 278.3125 C142.5850733 277.06306659 142.5850733 277.06306659 145.25 275.3125 C145.91 274.9825 146.57 274.6525 147.25 274.3125 C147.25 275.3025 147.25 276.2925 147.25 277.3125 C146.59 277.3125 145.93 277.3125 145.25 277.3125 C145.25 277.9725 145.25 278.6325 145.25 279.3125 C131.61306648 291.59802569 115.5250738 297.37446441 97.25 297.3125 C84.34496474 296.52861709 72.51271568 292.15095213 62.25 284.3125 C61.63640625 283.87421875 61.0228125 283.4359375 60.390625 282.984375 C49.71077106 274.76183259 45.66365722 261.50707269 41.25 249.3125 C39.52054511 251.35392311 37.79142952 253.39563202 36.0625 255.4375 C35.57974609 256.00726562 35.09699219 256.57703125 34.59960938 257.1640625 C34.11943359 257.73125 33.63925781 258.2984375 33.14453125 258.8828125 C32.66322754 259.4490332 32.18192383 260.01525391 31.68603516 260.59863281 C30.72338922 261.74752341 29.77516156 262.90864032 28.84130859 264.08105469 C27.68525799 265.52537498 26.47211654 266.92363526 25.25 268.3125 C24.59 268.3125 23.93 268.3125 23.25 268.3125 C23.25 268.9725 23.25 269.6325 23.25 270.3125 C1.33044012 289.07222722 -23.46964009 296.99121424 -52.21923828 295.03662109 C-70.12156627 293.43443629 -88.32117694 287.69563601 -101.75 275.3125 C-102.4203125 274.73242188 -103.090625 274.15234375 -103.78125 273.5546875 C-116.45964669 261.90031516 -122.96863268 245.499787 -123.97265625 228.5546875 C-124.60330201 208.65296275 -118.32312238 190.9947207 -104.78515625 176.33984375 C-84.96891152 156.04359832 -57.63960176 147.0630501 -31.79394531 137.0612793 C9.30813843 121.77445384 9.30813843 121.77445384 37 89.5625 C44.05092207 71.53843877 42.00444865 51.89463976 34.6875 34.27734375 C29.4496512 23.47428059 21.61081021 14.63742718 10.390625 10.00390625 C-0.43431716 6.50752895 -12.27786032 7.59834259 -22.4140625 12.63671875 C-37.12860697 21.10536141 -45.03466405 32.84144226 -49.8671875 49.0625 C-50.99203743 53.76601229 -51.09411878 58.36861525 -51.0625 63.1875 C-51.05758545 64.07083008 -51.0526709 64.95416016 -51.04760742 65.86425781 C-50.93556913 72.0855431 -50.44327645 77.61939531 -47.75 83.3125 C-47.43289063 84.0240625 -47.11578125 84.735625 -46.7890625 85.46875 C-43.63977704 91.4546259 -38.92375601 94.73798446 -32.75 97.3125 C-28.76890082 98.28784585 -24.82649711 98.90625115 -20.75 99.3125 C-20.98104812 109.18455616 -24.23088586 117.41757395 -30.96875 124.72265625 C-34.53758683 127.90799965 -38.50254674 130.15140575 -42.75 132.3125 C-43.52601563 132.72886719 -44.30203125 133.14523437 -45.1015625 133.57421875 C-56.76488299 138.85048278 -73.07454297 137.99887338 -84.890625 133.63671875 C-98.7816432 127.20358327 -107.12195062 117.88262344 -112.7890625 103.71484375 C-118.23001057 86.044475 -115.20645565 66.56044878 -107.625 50.125 C-95.64489173 27.54122142 -73.48979995 13.88957654 -49.75 6.3125 C-33.40367781 1.49478845 -16.9616195 -0.08349539 0 0 Z M37.25 106.3125 C36.00292471 107.56576425 34.77850345 108.84156568 33.5625 110.125 C27.59484312 116.14913313 20.99844275 121.20644524 14.25 126.3125 C13.58983887 126.81217285 12.92967773 127.3118457 12.24951172 127.82666016 C6.50639265 132.16397614 0.73887147 136.46837586 -5.04296875 140.75390625 C-24.81275617 155.45976365 -43.59467135 170.25555913 -48 195.8125 C-50.18853227 212.57153086 -48.03828018 229.0224282 -37.80859375 242.95703125 C-30.27846966 251.57309354 -18.83359993 255.13696667 -7.75 256.3125 C8.7590306 256.39902532 22.8098353 252.41766789 35.875 242.125 C36.73351562 241.45082031 37.59203125 240.77664063 38.4765625 240.08203125 C40.49132637 236.93562687 40.37403741 236.42857924 39.87367249 232.90457153 C39.15806085 226.94765684 39.07617379 221.06473885 39.04467773 215.06982422 C39.03477814 213.88818192 39.02487854 212.70653961 39.01467896 211.48908997 C38.98329778 207.61514229 38.9583997 203.74118238 38.93359375 199.8671875 C38.91351648 197.16862264 38.89205219 194.47006929 38.87062073 191.77151489 C38.82092481 185.41470525 38.77590138 179.05787164 38.73259836 172.70101559 C38.68302713 165.45784617 38.62818346 158.21471958 38.57291877 150.97159171 C38.45945388 136.08526782 38.35253911 121.19890346 38.25 106.3125 C37.92 106.3125 37.59 106.3125 37.25 106.3125 Z " fill="#E3EB73" transform="translate(561.75,289.6875)"/>
<path d="M0 0 C0.33 0.66 0.66 1.32 1 2 C3.0260982 2.48905819 5.05725649 2.96090586 7.1015625 3.3671875 C10.45018257 4.09828784 13.70634076 5.05193178 17 6 C40.7405426 12.48014558 64.95440799 10.45479187 87.890625 1.890625 C90.89433326 1.03026635 92.15990559 0.84709039 95 2 C93.33424841 3.52183555 91.66734329 5.0424085 90 6.5625 C89.24505249 7.25194702 89.24505249 7.25194702 88.47485352 7.95532227 C85.67330253 10.50620112 82.83564634 12.99758213 79.9375 15.4375 C49.13318585 42.47753951 40.30089701 83.74351871 28.85473633 121.36694336 C25.91796866 130.99167703 22.83915872 140.55782079 19.63671875 150.09765625 C15.46210405 162.53371549 11.46976041 175.02083977 7.5435791 187.53729248 C5.6010278 193.7284378 3.64975386 199.91683503 1.69921875 206.10546875 C1.30473541 207.35753113 0.91025208 208.60959351 0.5038147 209.89959717 C-4.98667849 227.31641756 -10.54616274 244.71109161 -16.13891602 262.09532166 C-17.73463672 267.05608096 -19.32608684 272.01812613 -20.90771484 276.98339844 C-34.57922024 319.89913453 -34.57922024 319.89913453 -42 336 C-42.32629395 336.71462402 -42.65258789 337.42924805 -42.98876953 338.16552734 C-53.81303856 361.57065894 -68.18799789 382.90942033 -91 396 C-91.65226563 396.38800781 -92.30453125 396.77601563 -92.9765625 397.17578125 C-109.78437317 406.43795777 -133.59913648 407.98734852 -152.0625 403.5 C-168.85895722 398.05916115 -183.54011098 389.45771158 -192.59765625 373.80078125 C-198.2007471 362.61020705 -200.09996056 350.98869687 -196.875 338.6875 C-192.38054469 326.08212069 -184.42525714 317.03789372 -172.41601562 311.23950195 C-159.93247955 305.63285537 -146.63802708 305.88956377 -133.75 310.125 C-125.60249949 313.28330076 -119.0576808 317.73674179 -113 324 C-113.66386719 324.40089844 -114.32773437 324.80179688 -115.01171875 325.21484375 C-122.79163738 330.22352129 -126.78280034 335.22802907 -129.3125 344.125 C-130.87099132 352.90922382 -129.70664847 359.73497817 -124.9375 367.25 C-119.19703597 373.4373265 -110.21657255 376.33411279 -102 377 C-88.46598749 377.13350444 -78.80981527 373.2935092 -69 364 C-49.09285975 342.9218515 -41.20383311 311.76306858 -32 285 C-33.25973633 284.8460376 -34.51947266 284.6920752 -35.81738281 284.53344727 C-39.15825744 284.12513239 -42.44083025 283.55454132 -45.75 282.9375 C-63.71342954 280.16266129 -81.66390107 281.74358021 -98.72265625 287.87890625 C-101.49664592 288.82781571 -104.11560506 289.51472372 -107 290 C-107.01417969 289.28199219 -107.02835938 288.56398438 -107.04296875 287.82421875 C-107.35748801 280.99830082 -108.38048475 274.72273169 -110.140625 268.13671875 C-110.36100937 267.3090097 -110.58139374 266.48130066 -110.80845642 265.62850952 C-113.19648848 256.91850978 -116.31082981 248.54232476 -119.5625 240.125 C-120.21347032 238.41777496 -120.86341927 236.71016018 -121.51245117 235.00219727 C-122.91749698 231.30762008 -124.32740314 227.61494641 -125.74023438 223.92333984 C-128.11353883 217.71331417 -130.4572774 211.49232082 -132.796875 205.26953125 C-143.752679 176.13684054 -154.7865388 147.03456512 -166 118 C-166.40774658 116.94327087 -166.81549316 115.88654175 -167.2355957 114.79779053 C-180.03384553 81.55661198 -180.03384553 81.55661198 -193.75 48.6875 C-194.01687622 48.06803497 -194.28375244 47.44856995 -194.55871582 46.81033325 C-199.63796939 35.07247702 -205.61090492 23.72766262 -213.25 13.4375 C-213.65734375 12.87482422 -214.0646875 12.31214844 -214.484375 11.73242188 C-216.90033793 8.41434458 -219.41314245 5.18610666 -222 2 C-218.76662646 0.38331323 -215.7730796 2.18810635 -212.5 3.25 C-199.31980409 7.31977356 -185.7835693 9.43379433 -172 10 C-170.54013672 10.061875 -170.54013672 10.061875 -169.05078125 10.125 C-151.86190805 10.47714081 -135.37783914 7.85507427 -118.8215332 3.42724609 C-117 3 -117 3 -115 3 C-114.84144531 4.02996094 -114.68289063 5.05992187 -114.51953125 6.12109375 C-111.38742946 25.62723063 -104.75261918 43.39378619 -97.63476562 61.77392578 C-95.92955164 66.17777591 -94.23758072 70.5866572 -92.546875 74.99609375 C-87.34912366 88.54535967 -82.12866255 102.08584228 -76.89453125 115.62109375 C-76.55037674 116.51112091 -76.20622223 117.40114807 -75.85163879 118.31814575 C-74.44262174 121.96187201 -73.03357833 125.60558784 -71.62380981 129.24902344 C-67.53176769 139.82559415 -63.45588966 150.40803333 -59.4140625 161.00390625 C-44.01195511 201.80679886 -44.01195511 201.80679886 -27.25 242.0625 C-26.93853027 242.77124268 -26.62706055 243.47998535 -26.30615234 244.21020508 C-25.09267388 246.8952085 -24.10214613 248.89785387 -22 251 C-21.54451782 249.52865601 -21.54451782 249.52865601 -21.07983398 248.02758789 C-13.6687162 224.1000793 -6.1803178 200.19757207 1.35810375 176.30992603 C5.70964568 162.52014337 10.05202143 148.72747313 14.39147949 134.93388367 C14.96353741 133.11587844 15.53595566 131.29798662 16.10839844 129.48010254 C33.16486073 83.48779959 33.16486073 83.48779959 27.4921875 36.6875 C23.46115405 29.48788677 18.40283147 23.20908591 13 17 C12.25878906 16.13632812 11.51757812 15.27265625 10.75390625 14.3828125 C6.75936835 9.77026618 6.75936835 9.77026618 2 6 C2 5.34 2 4.68 2 4 C1.01 3.67 0.02 3.34 -1 3 C-0.67 2.01 -0.34 1.02 0 0 Z " fill="#E3EB73" transform="translate(923,296)"/>
<path d="M0 0 C0.00203479 1.15833238 0.00203479 1.15833238 0.00411069 2.34006542 C0.08483582 48.15172434 0.17582107 93.96335309 0.28005161 139.77496487 C0.29256984 145.28088461 0.30500271 150.78680455 0.31738281 156.29272461 C0.31984881 157.38881157 0.3223148 158.48489853 0.32485552 159.61420024 C0.36453284 177.34038945 0.39730239 195.066585 0.42749982 212.79279261 C0.45866093 230.99400341 0.49729013 249.19518743 0.54279006 267.39636809 C0.57061149 278.61909095 0.59267191 289.84179431 0.60726251 301.0645423 C0.6178395 308.77003693 0.63569856 316.4754937 0.65916704 324.18095975 C0.67247691 328.62043554 0.68268838 333.05985851 0.68421364 337.49935532 C0.68568549 341.57554832 0.69644065 345.65161447 0.71413441 349.72776837 C0.71892686 351.19104183 0.72050758 352.65433072 0.71827881 354.11761033 C0.69815825 369.94214905 0.99074168 387.88844962 9 402 C8.24783203 401.74476563 8.24783203 401.74476563 7.48046875 401.484375 C-4.81810954 397.5454777 -18.06394839 394.44209389 -31 394 C-32.00160156 393.96003906 -33.00320313 393.92007812 -34.03515625 393.87890625 C-50.70540925 393.54745093 -66.92252953 395.69652876 -83 400 C-84.33270982 400.33581753 -85.66567405 400.67066255 -87 401 C-86.70996094 399.3603125 -86.70996094 399.3603125 -86.4140625 397.6875 C-82.63658349 375.59140869 -81.64591751 353.48365327 -81.39870453 331.09749603 C-81.37439534 328.94649676 -81.34719569 326.79554913 -81.31939697 324.64459229 C-80.65589014 272.43477991 -80.81926383 220.21240382 -81 168 C-81.00425743 166.75607231 -81.00851486 165.51214462 -81.01290131 164.23052216 C-81.0669796 148.85112515 -81.14629537 133.47212044 -81.26446533 118.09307861 C-81.29745588 113.78201605 -81.32441012 109.47098601 -81.34588623 105.15985107 C-81.37155634 100.13971334 -81.41171657 95.11989356 -81.46306038 90.09995461 C-81.47947444 88.28838619 -81.49124771 86.47676781 -81.49764824 84.66513634 C-81.55108616 71.04135347 -81.6726392 56.10615843 -88.1328125 43.76171875 C-89.0654084 41.86712078 -89.55461403 40.05877393 -90 38 C-88.87464844 37.90203125 -87.74929688 37.8040625 -86.58984375 37.703125 C-54.84209177 34.71317664 -29.1554909 21.09939067 -4.73828125 1.15234375 C-3 0 -3 0 0 0 Z " fill="#E3EB73" transform="translate(391,178)"/>
<path d="M0 0 C-2.97 2.475 -2.97 2.475 -6 5 C-6.99 3.68 -7.98 2.36 -9 1 C-5.57367167 -0.61798838 -3.61944899 -1.34053666 0 0 Z " fill="#EBF386" transform="translate(1018,298)"/>
<path d="M0 0 C0.33 0.66 0.66 1.32 1 2 C4.02934491 2.65772428 4.02934491 2.65772428 7 3 C6.01 3.495 6.01 3.495 5 4 C4.67 4.99 4.34 5.98 4 7 C3.34 6.67 2.68 6.34 2 6 C2 5.34 2 4.68 2 4 C1.01 3.67 0.02 3.34 -1 3 C-0.67 2.01 -0.34 1.02 0 0 Z " fill="#F0F78E" transform="translate(923,296)"/>
<path d="M0 0 C0.33 0.99 0.66 1.98 1 3 C0.34 3 -0.32 3 -1 3 C-1 3.66 -1 4.32 -1 5 C-2.65 5.66 -4.3 6.32 -6 7 C-6.33 6.01 -6.66 5.02 -7 4 C-6.030625 3.525625 -5.06125 3.05125 -4.0625 2.5625 C-1.19522563 1.29806053 -1.19522563 1.29806053 0 0 Z " fill="#E9F280" transform="translate(708,564)"/>
<path d="" fill="#FFFFAA" transform="translate(0,0)"/>
<path d="" fill="#FFFF00" transform="translate(0,0)"/>
<path d="" fill="#FFFF7F" transform="translate(0,0)"/>
<path d="" fill="#FFFF00" transform="translate(0,0)"/>
<path d="" fill="#FFFFFF" transform="translate(0,0)"/>
<path d="" fill="#FFFFFF" transform="translate(0,0)"/>
<path d="" fill="#FFFF7F" transform="translate(0,0)"/>
<path d="" fill="#FFFF7F" transform="translate(0,0)"/>
<path d="" fill="#FFFF99" transform="translate(0,0)"/>
<path d="" fill="#FFFF7F" transform="translate(0,0)"/>
<path d="" fill="#FFFF00" transform="translate(0,0)"/>
<path d="" fill="#FFFFFF" transform="translate(0,0)"/>
<path d="" fill="#FFFFFF" transform="translate(0,0)"/>
</svg>
