<svg width="111" height="60" viewBox="0 0 111 60" fill="none" xmlns="http://www.w3.org/2000/svg">
<path d="M77.584 14.5H77.714C79.014 15.02 81.354 15.41 83.564 15.41C85.514 15.41 87.399 15.15 88.569 14.5C88.244 15.215 89.154 17.945 93.054 28.475L94.744 33.025C96.304 37.185 97.474 40.11 98.384 42.19L103.714 24.315C105.209 19.245 103.714 16.84 100.984 15.15V14.5C102.804 15.15 104.234 15.475 105.729 15.475C107.159 15.475 108.589 15.15 110.409 14.5V15.15C107.484 16.97 105.859 19.375 104.299 24.64L96.629 50.25C94.484 57.335 90.389 59.935 86.814 59.935C83.434 59.935 80.639 57.595 80.639 54.54C80.639 51.68 82.914 49.99 85.514 49.99C86.814 49.99 88.179 50.445 89.349 51.355C86.359 53.63 87.919 57.075 90.389 57.075C92.209 57.075 94.484 55.32 95.979 50.25L96.954 46.935C95.719 46.545 94.484 46.415 93.379 46.415C92.079 46.415 90.909 46.61 90.324 47H90.194C90.519 46.285 89.609 43.555 85.709 33.025L84.019 28.475C80.119 17.945 78.429 15.215 77.584 14.5Z" fill="white"/>
<path d="M48.4863 39.59C48.4863 28.475 67.2063 31.335 67.2063 21.78C67.2063 16.645 64.6713 14.5 62.0713 14.5C59.2113 14.5 56.2213 17.1 56.2213 21C56.2213 23.275 57.5863 25.03 59.9263 24.77C59.9263 27.955 57.6513 29.45 55.1813 29.45C52.1913 29.45 49.0063 27.37 49.0063 23.47C49.0063 16.645 56.8063 13.85 62.4613 13.85C73.6413 13.85 75.5913 21.13 75.5913 27.11V38.745C75.5913 43.035 75.9813 45.83 77.6713 45.83C78.1263 45.83 78.6463 45.7 79.2313 45.31V45.635C77.9963 47.065 76.1763 47.65 74.2913 47.65C70.0663 47.65 68.3113 45.375 67.6613 42.385C64.8013 46.025 61.0313 47.65 57.6513 47.65C52.9713 47.65 48.4863 44.66 48.4863 39.59ZM56.8063 37.38C56.8063 41.41 59.6013 43.75 62.7213 43.75C64.4113 43.75 66.1013 43.1 67.5313 41.67C67.1413 39.785 67.1413 37.705 67.1413 35.69L67.2063 24.64C66.2963 27.955 56.8063 30.945 56.8063 37.38Z" fill="white"/>
<path d="M35.1309 11.51C35.1309 6.505 34.2859 5.465 34.1559 4.945C35.2609 4.945 39.0959 4.23 42.9309 0.849998H43.5809V33.025C43.5809 43.49 43.9709 46.285 44.5559 47C43.1259 46.35 41.2409 46.09 39.4859 46.09C37.4059 46.09 35.3909 46.48 34.2859 47H34.1559C34.7409 46.285 35.1309 43.49 35.1309 33.025V11.51Z" fill="white"/>
<path d="M0.625 37.25C0.625 33.285 3.745 31.01 7.45 31.01C10.31 31.01 13.43 32.895 13.43 36.34C10.505 36.08 8.49 37.835 8.49 40.76C8.49 44.465 12.195 46.675 15.64 46.675C18.955 46.675 22.335 44.855 22.335 40.955C22.335 29.775 1.275 27.37 1.275 14.955C1.275 8.26 8.035 5.27 14.795 5.27C19.475 5.27 28.25 7.35 28.25 13.525C28.25 16.45 25.975 18.92 21.815 18.92C19.02 18.92 15.965 16.905 15.965 13.85C18.045 13.85 20.775 12.94 20.775 10.405C20.775 7.74 18.045 6.31 15.25 6.31C12.13 6.31 9.335 8.065 9.335 11.51C9.335 19.895 30.265 25.03 30.265 37.315C30.265 44.205 22.92 47.65 15.64 47.65C9.465 47.65 0.625 44.79 0.625 37.25Z" fill="white"/>
</svg>
