<svg version="1.1" xmlns="http://www.w3.org/2000/svg" width="111" height="79.022" viewBox="0 0 111 79.022"><path d="m24.932 25.907 0.273 0.205c1.187 1.01 1.933 2.586 2.095 4.122 0.124 1.61 -0.196 3.214 -1.234 4.49 -1.185 1.354 -2.566 2.099 -4.358 2.236 -1.823 0.02 -3.561 -0.436 -4.933 -1.69 -0.849 -0.901 -1.277 -2.077 -1.287 -3.306L15.501 31.652c0.291 -0.145 0.535 -0.129 0.86 -0.142 1.264 -0.09 2.293 -0.536 3.15 -1.484 0.683 -0.917 0.762 -1.807 0.65 -2.927 -0.319 -1.077 -1.038 -1.726 -1.999 -2.249 -1.72 -0.847 -3.768 -0.896 -5.589 -0.352 -1.398 0.521 -2.346 1.273 -3.035 2.602 -0.596 1.379 -0.601 2.776 -0.143 4.198C9.965 32.712 11.079 33.949 12.249 34.904l0.295 0.257c0.929 0.811 1.913 1.54 2.911 2.262q0.379 0.274 0.756 0.551a89.971 89.971 0 0 0 2.522 1.774c0.827 0.561 1.62 1.15 2.405 1.768q0.269 0.206 0.538 0.411c1.158 0.884 2.264 1.807 3.322 2.807 0.122 0.115 0.246 0.23 0.37 0.344C26.845 46.479 27.947 48.35 28.509 50.297l0.105 0.361c0.45 1.852 0.412 3.908 -0.213 5.71l-0.119 0.349c-0.97 2.554 -3.053 4.25 -5.457 5.382 -4.81 2.13 -10.928 2.083 -15.818 0.243 -2.611 -1.025 -4.743 -2.669 -5.972 -5.244C0.303 55.4 0.21 53.586 0.759 51.814c0.686 -1.716 1.847 -2.977 3.527 -3.742C5.8 47.426 7.545 47.334 9.105 47.912c1.654 0.681 2.848 1.736 3.57 3.387 0.187 0.459 0.274 0.89 0.332 1.382l-0.405 0.028C11.055 52.834 9.745 53.085 8.672 54.308c-0.816 1.152 -1.093 2.511 -0.915 3.902 0.24 1.222 0.868 2.346 1.905 3.049 2.002 1.232 4.286 1.531 6.579 1.101 1.47 -0.376 2.694 -1.103 3.508 -2.395 0.881 -1.561 1.158 -3.174 0.765 -4.94 -0.347 -1.228 -0.945 -2.238 -1.761 -3.21l-0.186 -0.227c-0.691 -0.818 -1.518 -1.476 -2.361 -2.131l-0.258 -0.2c-0.735 -0.565 -1.49 -1.092 -2.259 -1.61 -0.494 -0.336 -0.984 -0.68 -1.474 -1.022 -0.603 -0.421 -1.206 -0.841 -1.816 -1.252C9.205 44.569 8.062 43.717 6.938 42.817l-0.179 -0.142C4.138 40.597 1.619 38.077 1.192 34.579c-0.098 -1.961 0.001 -3.735 0.867 -5.528l0.138 -0.296c1.259 -2.514 3.689 -4.006 6.279 -4.879C13.567 22.243 20.631 22.426 24.932 25.907" fill="#E3EB73"/><path d="m60.893 31.402 0.26 0.001c1.284 0.006 2.527 0.047 3.778 0.358l0.26 0.062c2.674 0.654 5.122 2.038 6.627 4.413 0.886 1.639 1.31 3.376 1.535 5.213l0.039 0.315c0.34 3.085 0.221 6.221 0.211 9.319q-0.004 1.244 -0.006 2.489 -0.001 0.489 -0.003 0.978c-0.003 1.04 0.011 2.078 0.055 3.117l0.012 0.297c0.054 1.141 0.24 2.447 1.108 3.275 0.453 0.287 0.684 0.332 1.219 0.332 0.362 -0.135 0.362 -0.135 0.65 -0.325l0.217 -0.108v0.325h-0.217v0.217c-1.478 1.332 -3.222 1.958 -5.203 1.951 -1.399 -0.085 -2.681 -0.56 -3.794 -1.409l-0.202 -0.144C66.281 61.185 65.843 59.749 65.364 58.427q-0.281 0.332 -0.562 0.664l-0.159 0.187 -0.158 0.186 -0.158 0.186q-0.156 0.187 -0.308 0.378c-0.125 0.157 -0.257 0.308 -0.389 0.459h-0.217v0.217c-2.376 2.034 -5.064 2.892 -8.181 2.68 -1.941 -0.174 -3.913 -0.796 -5.369 -2.138l-0.22 -0.191c-1.374 -1.263 -2.08 -3.041 -2.189 -4.878 -0.068 -2.157 0.612 -4.071 2.08 -5.66 2.148 -2.2 5.11 -3.173 7.912 -4.258 4.455 -1.657 4.455 -1.657 7.457 -5.149 0.764 -1.954 0.542 -4.083 -0.251 -5.993 -0.568 -1.171 -1.418 -2.129 -2.634 -2.631 -1.173 -0.379 -2.457 -0.261 -3.556 0.285 -1.595 0.918 -2.452 2.19 -2.976 3.949 -0.122 0.51 -0.133 1.009 -0.13 1.531l0.002 0.29c0.012 0.674 0.066 1.274 0.357 1.891l0.104 0.234c0.341 0.649 0.853 1.005 1.522 1.284 0.432 0.106 0.859 0.173 1.301 0.217 -0.025 1.07 -0.377 1.963 -1.108 2.754 -0.387 0.345 -0.817 0.588 -1.277 0.823l-0.255 0.137c-1.264 0.572 -3.032 0.48 -4.313 0.007 -1.506 -0.697 -2.41 -1.708 -3.024 -3.243 -0.59 -1.915 -0.262 -4.027 0.56 -5.809C50.525 34.387 52.927 32.907 55.5 32.086c1.772 -0.522 3.554 -0.693 5.393 -0.684M64.931 42.926a23.522 23.522 0 0 0 -0.4 0.413c-0.647 0.653 -1.362 1.201 -2.093 1.755l-0.217 0.164a260.481 260.481 0 0 1 -1.875 1.401c-2.143 1.594 -4.179 3.198 -4.656 5.968 -0.237 1.817 -0.004 3.6 1.105 5.11 0.816 0.934 2.057 1.32 3.258 1.448 1.79 0.009 3.313 -0.422 4.729 -1.538l0.282 -0.221c0.218 -0.341 0.206 -0.396 0.151 -0.778 -0.078 -0.646 -0.087 -1.283 -0.09 -1.933l-0.003 -0.388q-0.005 -0.63 -0.009 -1.26 -0.003 -0.439 -0.007 -0.878 -0.008 -1.034 -0.015 -2.067 -0.008 -1.178 -0.017 -2.355 -0.018 -2.421 -0.035 -4.841z" fill="#E3EB73"/><path d="m100.052 32.086 0.108 0.217c0.22 0.053 0.44 0.104 0.661 0.148 0.363 0.079 0.716 0.183 1.073 0.285 2.573 0.702 5.198 0.483 7.684 -0.446 0.326 -0.093 0.463 -0.113 0.771 0.012l-0.542 0.495 -0.165 0.151a31.652 31.652 0 0 1 -0.926 0.811c-3.339 2.931 -4.296 7.404 -5.537 11.483a117.938 117.938 0 0 1 -0.999 3.114c-0.453 1.348 -0.885 2.702 -1.311 4.058 -0.211 0.671 -0.422 1.342 -0.634 2.013l-0.13 0.411a1010.49 1010.49 0 0 1 -1.804 5.658q-0.26 0.807 -0.517 1.614C96.303 66.763 96.303 66.763 95.499 68.508l-0.107 0.235C94.219 71.28 92.66 73.593 90.188 75.012l-0.214 0.127c-1.822 1.004 -4.403 1.172 -6.405 0.686 -1.821 -0.59 -3.412 -1.522 -4.394 -3.219 -0.607 -1.213 -0.813 -2.473 -0.464 -3.806 0.487 -1.366 1.35 -2.347 2.651 -2.975 1.353 -0.608 2.794 -0.58 4.191 -0.121 0.883 0.342 1.593 0.825 2.249 1.504l-0.218 0.132c-0.843 0.543 -1.276 1.085 -1.55 2.05 -0.169 0.952 -0.043 1.692 0.474 2.507 0.622 0.671 1.596 0.985 2.486 1.057 1.467 0.015 2.514 -0.402 3.577 -1.409 2.158 -2.285 3.013 -5.662 4.011 -8.563l-0.414 -0.051c-0.362 -0.044 -0.718 -0.106 -1.077 -0.173 -1.947 -0.301 -3.893 -0.129 -5.742 0.536 -0.301 0.103 -0.585 0.177 -0.897 0.23l-0.005 -0.236c-0.034 -0.74 -0.145 -1.42 -0.336 -2.134l-0.072 -0.272c-0.259 -0.944 -0.597 -1.852 -0.949 -2.765l-0.211 -0.555a609.741 609.741 0 0 0 -0.458 -1.201 398.798 398.798 0 0 1 -0.765 -2.022C84.469 51.179 83.273 48.024 82.058 44.877l-0.134 -0.347c-1.387 -3.603 -1.387 -3.603 -2.874 -7.166l-0.088 -0.204c-0.551 -1.272 -1.198 -2.502 -2.026 -3.617l-0.134 -0.185A25.365 25.365 0 0 0 75.987 32.303c0.35 -0.175 0.675 0.02 1.03 0.135 1.429 0.441 2.896 0.67 4.39 0.732l0.32 0.014c1.863 0.038 3.65 -0.246 5.445 -0.726C87.369 32.411 87.369 32.411 87.586 32.411l0.052 0.338c0.34 2.114 1.059 4.04 1.83 6.033 0.185 0.477 0.368 0.955 0.552 1.433a1756.705 1756.705 0 0 0 1.81 4.696l0.458 1.185a777.434 777.434 0 0 1 1.324 3.442c1.67 4.423 1.67 4.423 3.487 8.787l0.102 0.233c0.131 0.291 0.239 0.508 0.467 0.736l0.1 -0.322c0.803 -2.594 1.615 -5.185 2.432 -7.774a5367.023 5367.023 0 0 0 1.599 -5.076c1.849 -4.985 1.849 -4.985 1.234 -10.059 -0.437 -0.78 -0.985 -1.461 -1.571 -2.134l-0.243 -0.284c-0.433 -0.5 -0.433 -0.5 -0.949 -0.909v-0.217l-0.325 -0.108z" fill="#E3EB73"/><path d="m42.384 19.295 0 0.254a29035.497 29035.497 0 0 0 0.034 16.688l0.001 0.36q0.006 2.882 0.011 5.765 0.005 2.959 0.013 5.919 0.005 1.825 0.007 3.65 0.002 1.253 0.006 2.506c0.001 0.481 0.003 0.962 0.003 1.444q0 0.663 0.003 1.326 0.001 0.238 0 0.476c-0.002 1.715 0.03 3.661 0.898 5.19l-0.165 -0.056c-1.333 -0.427 -2.769 -0.763 -4.171 -0.811l-0.329 -0.013c-1.807 -0.036 -3.565 0.197 -5.308 0.664q-0.217 0.055 -0.434 0.108l0.064 -0.359c0.409 -2.395 0.517 -4.792 0.544 -7.218q0.004 -0.35 0.009 -0.699c0.072 -5.659 0.054 -11.32 0.035 -16.98l-0.001 -0.409c-0.006 -1.667 -0.014 -3.334 -0.027 -5.001q-0.005 -0.701 -0.009 -1.402 -0.004 -0.816 -0.013 -1.632a106.556 106.556 0 0 1 -0.004 -0.589c-0.006 -1.477 -0.019 -3.096 -0.719 -4.434 -0.101 -0.205 -0.154 -0.401 -0.202 -0.625l0.37 -0.032c3.441 -0.324 6.226 -1.8 8.873 -3.962C42.059 19.295 42.059 19.295 42.384 19.295" fill="#E3EB73"/><path d="m110.35 32.303 -0.65 0.542 -0.325 -0.434c0.371 -0.175 0.583 -0.254 0.976 -0.108" fill="#EBF386"/><path d="m100.052 32.086 0.108 0.217c0.328 0.071 0.328 0.071 0.65 0.108l-0.217 0.108 -0.108 0.325 -0.217 -0.108v-0.217l-0.325 -0.108z" fill="#F0F78E"/><path d="m76.746 61.137 0.108 0.325h-0.217v0.217l-0.542 0.217 -0.108 -0.325 0.318 -0.156c0.311 -0.137 0.311 -0.137 0.44 -0.278" fill="#E9F280"/><path d="" fill="#FFFFAA"/><path d="" fill="#FFFF00"/><path d="" fill="#FFFF7F"/><path d="" fill="#FFFF00"/><path d="" fill="#FFFFFF"/><path d="" fill="#FFFFFF"/><path d="" fill="#FFFF7F"/><path d="" fill="#FFFF7F"/><path d="" fill="#FFFF99"/><path d="" fill="#FFFF7F"/><path d="" fill="#FFFF00"/><path d="" fill="#FFFFFF"/><path d="" fill="#FFFFFF"/></svg>